<mxfile host="65bd71144e">
    <diagram id="QKOttZpNPm8bgM1Gy_pq" name="Page-1">
        <mxGraphModel dx="1310" dy="782" grid="1" gridSize="10" guides="1" tooltips="1" connect="1" arrows="1" fold="1" page="1" pageScale="1" pageWidth="850" pageHeight="1100" math="0" shadow="0">
            <root>
                <mxCell id="0"/>
                <mxCell id="1" parent="0"/>
                <mxCell id="25" value="" style="rounded=0;whiteSpace=wrap;html=1;fontSize=24;" vertex="1" parent="1">
                    <mxGeometry x="40" y="140" width="340" height="225" as="geometry"/>
                </mxCell>
                <mxCell id="2" value="Data.json" style="shape=cylinder3;whiteSpace=wrap;html=1;boundedLbl=1;backgroundOutline=1;size=15;" vertex="1" parent="1">
                    <mxGeometry x="260" y="247.5" width="110" height="95" as="geometry"/>
                </mxCell>
                <mxCell id="15" style="edgeStyle=none;html=1;entryX=0;entryY=0.5;entryDx=0;entryDy=0;fontSize=33;endArrow=none;endFill=0;" edge="1" parent="1" target="14">
                    <mxGeometry relative="1" as="geometry">
                        <mxPoint x="190" y="200" as="sourcePoint"/>
                    </mxGeometry>
                </mxCell>
                <mxCell id="4" value="REST API" style="swimlane;startSize=70;" vertex="1" parent="1">
                    <mxGeometry x="60" y="150" width="130" height="200" as="geometry">
                        <mxRectangle x="220" y="240" width="90" height="23" as="alternateBounds"/>
                    </mxGeometry>
                </mxCell>
                <mxCell id="6" value="System.Text.Json" style="rounded=0;whiteSpace=wrap;html=1;" vertex="1" parent="4">
                    <mxGeometry y="130" width="130" height="30" as="geometry"/>
                </mxCell>
                <mxCell id="5" value="ASP .NET Core" style="rounded=0;whiteSpace=wrap;html=1;" vertex="1" parent="4">
                    <mxGeometry y="160" width="130" height="40" as="geometry"/>
                </mxCell>
                <mxCell id="7" value="Reglas de negocio" style="rounded=0;whiteSpace=wrap;html=1;" vertex="1" parent="4">
                    <mxGeometry y="65" width="130" height="65" as="geometry"/>
                </mxCell>
                <mxCell id="79" style="edgeStyle=orthogonalEdgeStyle;html=1;exitX=1;exitY=0.5;exitDx=0;exitDy=0;entryX=0.25;entryY=0.25;entryDx=0;entryDy=0;entryPerimeter=0;fontSize=19;endArrow=none;endFill=0;elbow=vertical;" edge="1" parent="1" source="14" target="26">
                    <mxGeometry relative="1" as="geometry">
                        <Array as="points">
                            <mxPoint x="504" y="200"/>
                        </Array>
                    </mxGeometry>
                </mxCell>
                <mxCell id="14" value="&lt;font style=&quot;font-size: 24px&quot;&gt;:PORT&lt;/font&gt;" style="shape=process;whiteSpace=wrap;html=1;backgroundOutline=1;fontSize=33;" vertex="1" parent="1">
                    <mxGeometry x="280" y="170" width="120" height="60" as="geometry"/>
                </mxCell>
                <mxCell id="18" value="" style="rounded=0;whiteSpace=wrap;html=1;fontSize=24;" vertex="1" parent="1">
                    <mxGeometry x="440" y="470" width="350" height="250" as="geometry"/>
                </mxCell>
                <mxCell id="19" value="App Web" style="rounded=0;whiteSpace=wrap;html=1;fontSize=24;" vertex="1" parent="1">
                    <mxGeometry x="440" y="440" width="170" height="30" as="geometry"/>
                </mxCell>
                <mxCell id="21" value="" style="rounded=0;whiteSpace=wrap;html=1;fontSize=24;" vertex="1" parent="1">
                    <mxGeometry x="40" y="471" width="360" height="249" as="geometry"/>
                </mxCell>
                <mxCell id="22" value="App MÃ³vil" style="rounded=0;whiteSpace=wrap;html=1;fontSize=24;" vertex="1" parent="1">
                    <mxGeometry x="40" y="441" width="170" height="30" as="geometry"/>
                </mxCell>
                <mxCell id="75" style="edgeStyle=entityRelationEdgeStyle;html=1;exitX=0.13;exitY=0.77;exitDx=0;exitDy=0;exitPerimeter=0;entryX=1;entryY=0.5;entryDx=0;entryDy=0;fontSize=19;endArrow=none;endFill=0;elbow=vertical;" edge="1" parent="1" source="26" target="64">
                    <mxGeometry relative="1" as="geometry"/>
                </mxCell>
                <mxCell id="80" style="edgeStyle=orthogonalEdgeStyle;html=1;exitX=0.55;exitY=0.95;exitDx=0;exitDy=0;exitPerimeter=0;entryX=0;entryY=0.25;entryDx=0;entryDy=0;fontSize=19;endArrow=none;endFill=0;elbow=vertical;" edge="1" parent="1" source="26" target="73">
                    <mxGeometry relative="1" as="geometry"/>
                </mxCell>
                <mxCell id="26" value="RED" style="ellipse;shape=cloud;whiteSpace=wrap;html=1;fontSize=24;" vertex="1" parent="1">
                    <mxGeometry x="400" y="146" width="415" height="270" as="geometry"/>
                </mxCell>
                <mxCell id="46" style="edgeStyle=orthogonalEdgeStyle;html=1;exitX=1;exitY=0.5;exitDx=0;exitDy=0;entryX=0;entryY=0.5;entryDx=0;entryDy=0;entryPerimeter=0;fontSize=24;endArrow=none;endFill=0;" edge="1" parent="1" source="6" target="2">
                    <mxGeometry relative="1" as="geometry"/>
                </mxCell>
                <mxCell id="48" value="IIS" style="rounded=0;whiteSpace=wrap;html=1;fontSize=24;" vertex="1" parent="1">
                    <mxGeometry x="40" y="110" width="190" height="30" as="geometry"/>
                </mxCell>
                <mxCell id="52" value="Android" style="rounded=0;whiteSpace=wrap;html=1;fontSize=24;" vertex="1" parent="1">
                    <mxGeometry x="70" y="640" width="310" height="60" as="geometry"/>
                </mxCell>
                <mxCell id="54" value="Vistas de usuario" style="rounded=0;whiteSpace=wrap;html=1;fontSize=24;" vertex="1" parent="1">
                    <mxGeometry x="70" y="530" width="310" height="110" as="geometry"/>
                </mxCell>
                <mxCell id="56" value="Angular" style="rounded=0;whiteSpace=wrap;html=1;fontSize=24;" vertex="1" parent="1">
                    <mxGeometry x="470" y="640" width="300" height="60" as="geometry"/>
                </mxCell>
                <mxCell id="57" value="Vistas de usuario" style="rounded=0;whiteSpace=wrap;html=1;fontSize=24;" vertex="1" parent="1">
                    <mxGeometry x="470" y="530" width="300" height="110" as="geometry"/>
                </mxCell>
                <mxCell id="68" value="" style="group" vertex="1" connectable="0" parent="1">
                    <mxGeometry x="270" y="430" width="110" height="80" as="geometry"/>
                </mxCell>
                <mxCell id="64" value="" style="rounded=0;whiteSpace=wrap;html=1;fontSize=19;" vertex="1" parent="68">
                    <mxGeometry width="110" height="17.142857142857146" as="geometry"/>
                </mxCell>
                <mxCell id="67" value="" style="group" vertex="1" connectable="0" parent="68">
                    <mxGeometry y="17.142857142857146" width="110" height="62.85714285714286" as="geometry"/>
                </mxCell>
                <mxCell id="65" value="" style="rounded=0;whiteSpace=wrap;html=1;fontSize=19;" vertex="1" parent="67">
                    <mxGeometry y="45.71428571428572" width="110" height="17.142857142857146" as="geometry"/>
                </mxCell>
                <mxCell id="66" value="Cliente HTTP" style="rounded=0;whiteSpace=wrap;html=1;fontSize=19;" vertex="1" parent="67">
                    <mxGeometry width="110" height="45.71428571428572" as="geometry"/>
                </mxCell>
                <mxCell id="69" value="" style="group" vertex="1" connectable="0" parent="1">
                    <mxGeometry x="660" y="430" width="110" height="80" as="geometry"/>
                </mxCell>
                <mxCell id="70" value="" style="rounded=0;whiteSpace=wrap;html=1;fontSize=19;" vertex="1" parent="69">
                    <mxGeometry width="110" height="17.142857142857146" as="geometry"/>
                </mxCell>
                <mxCell id="71" value="" style="group" vertex="1" connectable="0" parent="69">
                    <mxGeometry y="17.142857142857146" width="110" height="62.85714285714286" as="geometry"/>
                </mxCell>
                <mxCell id="72" value="" style="rounded=0;whiteSpace=wrap;html=1;fontSize=19;" vertex="1" parent="71">
                    <mxGeometry y="45.71428571428572" width="110" height="17.142857142857146" as="geometry"/>
                </mxCell>
                <mxCell id="73" value="Cliente HTTP" style="rounded=0;whiteSpace=wrap;html=1;fontSize=19;" vertex="1" parent="71">
                    <mxGeometry width="110" height="45.71428571428572" as="geometry"/>
                </mxCell>
            </root>
        </mxGraphModel>
    </diagram>
</mxfile>